<svg xmlns="http://www.w3.org/2000/svg" fill="none" viewBox="0 0 94 14" height="14" width="94">
<path fill="url(#paint0_linear_7574_33)" d="M9.9933 4.57299L14.0869 4.87503C14.2111 4.8833 14.3299 4.92854 14.4281 5.00493C14.5263 5.08132 14.5994 5.18536 14.638 5.30365C14.6765 5.42194 14.6788 5.54907 14.6445 5.66866C14.6102 5.78826 14.5408 5.89484 14.4454 5.97468L11.3078 8.61899C11.2192 8.69392 11.1532 8.79206 11.1174 8.9024C11.0815 9.01274 11.0771 9.13089 11.1047 9.24359L12.0848 13.228C12.1142 13.3483 12.1072 13.4746 12.0646 13.5908C12.022 13.707 11.9458 13.808 11.8456 13.8808C11.7455 13.9536 11.6259 13.9949 11.5022 13.9996C11.3785 14.0042 11.2562 13.9719 11.1509 13.9069L7.66276 11.7435C7.56378 11.6818 7.44949 11.6491 7.33287 11.6491C7.21624 11.6491 7.10196 11.6818 7.00297 11.7435L3.5178 13.9069C3.41248 13.9719 3.29018 14.0042 3.16646 13.9996C3.04274 13.9949 2.9232 13.9536 2.82306 13.8808C2.72291 13.808 2.64669 13.707 2.60409 13.5908C2.56149 13.4746 2.55443 13.3483 2.58383 13.228L3.56399 9.24359C3.59157 9.13089 3.58717 9.01274 3.5513 8.9024C3.51543 8.79206 3.4495 8.69392 3.36092 8.61899L0.22324 5.97468C0.127821 5.89484 0.0584891 5.78826 0.0241719 5.66866C-0.0101454 5.54907 -0.00787626 5.42194 0.030687 5.30365C0.0692502 5.18536 0.142342 5.08132 0.240549 5.00493C0.338757 4.92854 0.457584 4.8833 0.581728 4.87503L4.70396 4.57299C4.81119 4.56526 4.9141 4.52764 5.00105 4.46441C5.08799 4.40118 5.15548 4.31486 5.19588 4.21524L6.75738 0.387708C6.80416 0.27308 6.88402 0.174984 6.98678 0.105931C7.08953 0.0368784 7.21053 0 7.33434 0C7.45814 0 7.57914 0.0368784 7.68189 0.105931C7.78465 0.174984 7.86451 0.27308 7.91129 0.387708L9.46033 4.18738C9.50429 4.29502 9.57751 4.3882 9.67171 4.45635C9.76591 4.5245 9.87731 4.56491 9.9933 4.57299Z"></path>
<path fill="url(#paint1_linear_7574_33)" d="M29.6618 4.57299L33.7554 4.87503C33.8795 4.8833 33.9984 4.92854 34.0966 5.00493C34.1948 5.08132 34.2679 5.18536 34.3064 5.30365C34.345 5.42194 34.3473 5.54907 34.313 5.66866C34.2786 5.78825 34.2093 5.89484 34.1139 5.97468L30.9762 8.61898C30.8876 8.69391 30.8217 8.79206 30.7858 8.9024C30.75 9.01274 30.7456 9.13089 30.7731 9.24359L31.7533 13.228C31.7827 13.3483 31.7756 13.4746 31.733 13.5908C31.6904 13.707 31.6142 13.808 31.5141 13.8808C31.4139 13.9536 31.2944 13.9949 31.1707 13.9996C31.0469 14.0042 30.9246 13.9719 30.8193 13.9069L27.3312 11.7435C27.2322 11.6818 27.118 11.6491 27.0013 11.6491C26.8847 11.6491 26.7704 11.6818 26.6714 11.7435L23.1863 13.9069C23.0809 13.9719 22.9586 14.0042 22.8349 13.9996C22.7112 13.9949 22.5917 13.9536 22.4915 13.8808C22.3914 13.808 22.3151 13.707 22.2725 13.5908C22.2299 13.4746 22.2229 13.3483 22.2523 13.228L23.2324 9.24359C23.26 9.13089 23.2556 9.01274 23.2198 8.9024C23.1839 8.79206 23.118 8.69391 23.0294 8.61898L19.8917 5.97468C19.7963 5.89484 19.7269 5.78825 19.6926 5.66866C19.6583 5.54907 19.6606 5.42194 19.6991 5.30365C19.7377 5.18536 19.8108 5.08132 19.909 5.00493C20.0072 4.92854 20.126 4.8833 20.2502 4.87503L24.3724 4.57299C24.4796 4.56526 24.5826 4.52764 24.6695 4.46441C24.7564 4.40118 24.8239 4.31486 24.8643 4.21524L26.4258 0.387708C26.4726 0.27308 26.5525 0.174984 26.6552 0.105931C26.758 0.0368784 26.879 0 27.0028 0C27.1266 0 27.2476 0.0368784 27.3504 0.105931C27.4531 0.174984 27.533 0.27308 27.5797 0.387708L29.1288 4.18738C29.1727 4.29502 29.246 4.3882 29.3402 4.45635C29.4344 4.5245 29.5458 4.56491 29.6618 4.57299Z"></path>
<path fill="url(#paint2_linear_7574_33)" d="M49.3302 4.57299L53.4239 4.87503C53.548 4.8833 53.6668 4.92854 53.765 5.00493C53.8632 5.08132 53.9363 5.18536 53.9749 5.30365C54.0135 5.42194 54.0157 5.54907 53.9814 5.66866C53.9471 5.78825 53.8778 5.89484 53.7823 5.97468L50.6447 8.61898C50.5561 8.69391 50.4902 8.79206 50.4543 8.9024C50.4184 9.01274 50.414 9.13089 50.4416 9.24359L51.4218 13.228C51.4511 13.3483 51.4441 13.4746 51.4015 13.5908C51.3589 13.707 51.2827 13.808 51.1825 13.8808C51.0824 13.9536 50.9628 13.9949 50.8391 13.9996C50.7154 14.0042 50.5931 13.9719 50.4878 13.9069L46.9997 11.7435C46.9007 11.6818 46.7864 11.6491 46.6698 11.6491C46.5532 11.6491 46.4389 11.6818 46.3399 11.7435L42.8547 13.9069C42.7494 13.9719 42.6271 14.0042 42.5034 13.9996C42.3797 13.9949 42.2601 13.9536 42.16 13.8808C42.0598 13.808 41.9836 13.707 41.941 13.5908C41.8984 13.4746 41.8914 13.3483 41.9207 13.228L42.9009 9.24359C42.9285 9.13089 42.9241 9.01274 42.8882 8.9024C42.8523 8.79206 42.7864 8.69391 42.6978 8.61898L39.5602 5.97468C39.4647 5.89484 39.3954 5.78825 39.3611 5.66866C39.3268 5.54907 39.329 5.42194 39.3676 5.30365C39.4062 5.18536 39.4793 5.08132 39.5775 5.00493C39.6757 4.92854 39.7945 4.8833 39.9186 4.87503L44.0409 4.57299C44.1481 4.56526 44.251 4.52764 44.338 4.46441C44.4249 4.40118 44.4924 4.31486 44.5328 4.21524L46.0943 0.387708C46.1411 0.27308 46.2209 0.174984 46.3237 0.105931C46.4264 0.0368784 46.5474 0 46.6712 0C46.7951 0 46.9161 0.0368784 47.0188 0.105931C47.1216 0.174984 47.2014 0.27308 47.2482 0.387708L48.7972 4.18738C48.8412 4.29502 48.9144 4.3882 49.0086 4.45635C49.1028 4.5245 49.2142 4.56491 49.3302 4.57299Z"></path>
<path fill="url(#paint3_linear_7574_33)" d="M68.9987 4.57299L73.0923 4.87503C73.2165 4.8833 73.3353 4.92854 73.4335 5.00493C73.5317 5.08132 73.6048 5.18536 73.6434 5.30365C73.6819 5.42194 73.6842 5.54907 73.6499 5.66866C73.6156 5.78825 73.5462 5.89484 73.4508 5.97468L70.3131 8.61898C70.2245 8.69391 70.1586 8.79206 70.1227 8.9024C70.0869 9.01274 70.0825 9.13089 70.1101 9.24359L71.0902 13.228C71.1196 13.3483 71.1126 13.4746 71.07 13.5908C71.0274 13.707 70.9511 13.808 70.851 13.8808C70.7508 13.9536 70.6313 13.9949 70.5076 13.9996C70.3839 14.0042 70.2616 13.9719 70.1562 13.9069L66.6681 11.7435C66.5692 11.6818 66.4549 11.6491 66.3382 11.6491C66.2216 11.6491 66.1073 11.6818 66.0083 11.7435L62.5232 13.9069C62.4179 13.9719 62.2956 14.0042 62.1718 13.9996C62.0481 13.9949 61.9286 13.9536 61.8284 13.8808C61.7283 13.808 61.6521 13.707 61.6095 13.5908C61.5669 13.4746 61.5598 13.3483 61.5892 13.228L62.5694 9.24359C62.5969 9.13089 62.5925 9.01274 62.5567 8.9024C62.5208 8.79206 62.4549 8.69391 62.3663 8.61898L59.2286 5.97468C59.1332 5.89484 59.0639 5.78825 59.0295 5.66866C58.9952 5.54907 58.9975 5.42194 59.0361 5.30365C59.0746 5.18536 59.1477 5.08132 59.2459 5.00493C59.3441 4.92854 59.463 4.8833 59.5871 4.87503L63.7093 4.57299C63.8166 4.56526 63.9195 4.52764 64.0064 4.46441C64.0934 4.40118 64.1609 4.31486 64.2012 4.21524L65.7628 0.387708C65.8095 0.27308 65.8894 0.174984 65.9921 0.105931C66.0949 0.0368784 66.2159 0 66.3397 0C66.4635 0 66.5845 0.0368784 66.6873 0.105931C66.79 0.174984 66.8699 0.27308 66.9167 0.387708L68.4657 4.18738C68.5097 4.29502 68.5829 4.3882 68.6771 4.45635C68.7713 4.5245 68.8827 4.56491 68.9987 4.57299Z"></path>
<path fill="url(#paint4_linear_7574_33)" d="M88.6671 4.57299L92.7608 4.87503C92.8849 4.8833 93.0037 4.92854 93.102 5.00493C93.2002 5.08132 93.2733 5.18536 93.3118 5.30365C93.3504 5.42194 93.3526 5.54907 93.3183 5.66866C93.284 5.78825 93.2147 5.89484 93.1193 5.97468L89.9816 8.61898C89.893 8.69391 89.8271 8.79206 89.7912 8.9024C89.7553 9.01274 89.7509 9.13089 89.7785 9.24359L90.7587 13.228C90.7881 13.3483 90.781 13.4746 90.7384 13.5908C90.6958 13.707 90.6196 13.808 90.5194 13.8808C90.4193 13.9536 90.2998 13.9949 90.176 13.9996C90.0523 14.0042 89.93 13.9719 89.8247 13.9069L86.3366 11.7435C86.2376 11.6818 86.1233 11.6491 86.0067 11.6491C85.8901 11.6491 85.7758 11.6818 85.6768 11.7435L82.1916 13.9069C82.0863 13.9719 81.964 14.0042 81.8403 13.9996C81.7166 13.9949 81.597 13.9536 81.4969 13.8808C81.3967 13.808 81.3205 13.707 81.2779 13.5908C81.2353 13.4746 81.2283 13.3483 81.2577 13.228L82.2378 9.24359C82.2654 9.13089 82.261 9.01274 82.2251 8.9024C82.1893 8.79206 82.1233 8.69391 82.0347 8.61898L78.8971 5.97468C78.8016 5.89484 78.7323 5.78825 78.698 5.66866C78.6637 5.54907 78.666 5.42194 78.7045 5.30365C78.7431 5.18536 78.8162 5.08132 78.9144 5.00493C79.0126 4.92854 79.1314 4.8833 79.2556 4.87503L83.3778 4.57299C83.485 4.56526 83.5879 4.52764 83.6749 4.46441C83.7618 4.40118 83.8293 4.31486 83.8697 4.21524L85.4312 0.387708C85.478 0.27308 85.5578 0.174984 85.6606 0.105931C85.7634 0.0368784 85.8844 0 86.0082 0C86.132 0 86.253 0.0368784 86.3557 0.105931C86.4585 0.174984 86.5383 0.27308 86.5851 0.387708L88.1342 4.18738C88.1781 4.29502 88.2513 4.3882 88.3455 4.45635C88.4397 4.5245 88.5511 4.56491 88.6671 4.57299Z"></path>
<defs>
<linearGradient gradientUnits="userSpaceOnUse" y2="14.0021" x2="7.33433" y1="-0.00014" x1="7.33433" id="paint0_linear_7574_33">
<stop stop-color="#E30BA6"></stop>
<stop stop-color="#5B00ED" offset="1"></stop>
</linearGradient>
<linearGradient gradientUnits="userSpaceOnUse" y2="14.0021" x2="27.0028" y1="-0.00014" x1="27.0028" id="paint1_linear_7574_33">
<stop stop-color="#E30BA6"></stop>
<stop stop-color="#5B00ED" offset="1"></stop>
</linearGradient>
<linearGradient gradientUnits="userSpaceOnUse" y2="14.0021" x2="46.6712" y1="-0.00014" x1="46.6712" id="paint2_linear_7574_33">
<stop stop-color="#E30BA6"></stop>
<stop stop-color="#5B00ED" offset="1"></stop>
</linearGradient>
<linearGradient gradientUnits="userSpaceOnUse" y2="14.0021" x2="66.3397" y1="-0.00014" x1="66.3397" id="paint3_linear_7574_33">
<stop stop-color="#E30BA6"></stop>
<stop stop-color="#5B00ED" offset="1"></stop>
</linearGradient>
<linearGradient gradientUnits="userSpaceOnUse" y2="14.0021" x2="86.0082" y1="-0.00014" x1="86.0082" id="paint4_linear_7574_33">
<stop stop-color="#E30BA6"></stop>
<stop stop-color="#5B00ED" offset="1"></stop>
</linearGradient>
</defs>
</svg>
