<svg xmlns="http://www.w3.org/2000/svg" width="24" height="26" viewBox="0 0 24 26" fill="none">
                    <path d="M7.99966 6.00006C7.99966 4.9392 8.42109 3.92178 9.17123 3.17164C9.92138 2.42149 10.9388 2.00006 11.9997 2.00006C13.0605 2.00006 14.0779 2.42149 14.8281 3.17164C15.5782 3.92178 15.9997 4.9392 15.9997 6.00006V8.22406H17.5997V6.00006C17.5997 5.26466 17.4548 4.53646 17.1734 3.85704C16.892 3.17761 16.4795 2.56027 15.9595 2.04026C15.4394 1.52026 14.8221 1.10776 14.1427 0.826337C13.4633 0.544911 12.7351 0.400063 11.9997 0.400063C11.2643 0.400063 10.5361 0.544911 9.85663 0.826337C9.17721 1.10776 8.55987 1.52026 8.03986 2.04026C7.51985 2.56027 7.10736 3.17761 6.82593 3.85704C6.54451 4.53646 6.39966 5.26466 6.39966 6.00006V8.22406H7.99966V6.00006Z" fill="#3F0791"></path>
                    <path d="M17.5998 8.22389V10.7039C17.5998 10.9161 17.5155 11.1195 17.3655 11.2696C17.2155 11.4196 17.012 11.5039 16.7998 11.5039C16.5876 11.5039 16.3841 11.4196 16.2341 11.2696C16.0841 11.1195 15.9998 10.9161 15.9998 10.7039V8.22389H7.9998V10.7039C7.9998 10.9161 7.91552 11.1195 7.76549 11.2696C7.61546 11.4196 7.41198 11.5039 7.1998 11.5039C6.98763 11.5039 6.78415 11.4196 6.63412 11.2696C6.48409 11.1195 6.3998 10.9161 6.3998 10.7039V8.22389H0.799805V24.2239C0.799805 24.6482 0.968376 25.0552 1.26843 25.3553C1.56849 25.6553 1.97546 25.8239 2.3998 25.8239H21.5998C22.0242 25.8239 22.4311 25.6553 22.7312 25.3553C23.0312 25.0552 23.1998 24.6482 23.1998 24.2239V8.22389H17.5998Z" fill="#3F0791"></path>
                </svg>